<svg width="21" height="20" viewBox="0 0 21 20" fill="none" xmlns="http://www.w3.org/2000/svg">
<path d="M13.6253 10.8334C13.6253 10.4883 13.3455 10.2084 13.0003 10.2084H8.00033C7.65515 10.2084 7.37533 10.4883 7.37533 10.8334C7.37533 11.1786 7.65515 11.4584 8.00033 11.4584H13.0003C13.3455 11.4584 13.6253 11.1786 13.6253 10.8334Z" fill="#192A3E"/>
<path d="M13.6253 14.1668C13.6253 13.8216 13.3455 13.5418 13.0003 13.5418H8.00033C7.65515 13.5418 7.37533 13.8216 7.37533 14.1668C7.37533 14.5119 7.65515 14.7918 8.00033 14.7918H13.0003C13.3455 14.7918 13.6253 14.5119 13.6253 14.1668Z" fill="#192A3E"/>
<path fill-rule="evenodd" clip-rule="evenodd" d="M6.33366 1.8751C5.06801 1.8751 4.04199 2.90111 4.04199 4.16677V15.8334C4.04199 17.0991 5.06801 18.1251 6.33366 18.1251H14.667C15.9326 18.1251 16.9587 17.0991 16.9587 15.8334V6.63981C16.9587 6.3225 16.8552 6.01385 16.6639 5.76068L14.1657 2.4543C13.8901 2.08951 13.4594 1.8751 13.0022 1.8751H6.33366ZM5.29199 4.16677C5.29199 3.59147 5.75836 3.1251 6.33366 3.1251H12.3753V6.7893C12.3753 7.13448 12.6551 7.4143 13.0003 7.4143H15.7087V15.8334C15.7087 16.4087 15.2423 16.8751 14.667 16.8751H6.33366C5.75836 16.8751 5.29199 16.4087 5.29199 15.8334V4.16677Z" fill="#192A3E"/>
</svg>
