<svg width="18" height="18" viewBox="0 0 18 18" fill="none" xmlns="http://www.w3.org/2000/svg">
<path d="M14.1667 9.31881L14.1664 9.31948C14.014 9.72689 13.764 10.1325 13.4215 10.525L13.4193 10.5275L13.4193 10.5275L13.4184 10.5286L9.07429 15.5739L4.72748 10.5253L4.72704 10.5248C4.38483 10.1327 4.13482 9.72716 3.98079 9.31567L3.98054 9.31501C3.35638 7.68271 3.59284 5.83449 4.61524 4.37133L4.61524 4.37133C5.64051 2.90396 7.26498 2.06248 9.07429 2.06248C10.8836 2.06248 12.5078 2.90393 13.5331 4.37133L13.5332 4.37134C14.5557 5.83447 14.7924 7.68268 14.1667 9.31881ZM14.6491 3.60603C13.3668 1.77096 11.3339 0.718176 9.07429 0.718176C6.81472 0.718176 4.78174 1.77095 3.49947 3.60602C2.2238 5.43139 1.92855 7.7434 2.70987 9.78702C2.92038 10.3489 3.25413 10.8928 3.69785 11.4007C3.69792 11.4008 3.69799 11.4009 3.69805 11.4009L8.55798 17.0456C8.68703 17.1956 8.87583 17.2818 9.07429 17.2818C9.27274 17.2818 9.46156 17.1957 9.59062 17.0456L14.4492 11.4024C14.4493 11.4023 14.4493 11.4023 14.4494 11.4022C14.895 10.8915 15.2283 10.3482 15.4372 9.79064C16.22 7.74342 15.9248 5.43141 14.6491 3.60603ZM9.07442 4.11295C7.25256 4.11295 5.77034 5.59497 5.77034 7.41703C5.77034 9.23908 7.25236 10.7211 9.07442 10.7211C10.8965 10.7211 12.3785 9.23908 12.3785 7.41703C12.3785 5.59517 10.8963 4.11295 9.07442 4.11295ZM9.07442 9.37677C7.99391 9.37677 7.11464 8.49751 7.11464 7.417C7.11464 6.33649 7.99391 5.45722 9.07442 5.45722C10.1549 5.45722 11.0342 6.33649 11.0342 7.417C11.0342 8.49751 10.1549 9.37677 9.07442 9.37677Z" fill="white" stroke="white" stroke-width="0.2"/>
</svg>
