<svg width="24" height="24" viewBox="0 0 24 24" fill="none" xmlns="http://www.w3.org/2000/svg">
<rect x="3" y="2" width="18.18" height="18.18" rx="9.09" fill="white"/>
<path fill-rule="evenodd" clip-rule="evenodd" d="M7.14466 9.62876C6.99399 11.0287 7.0007 12.6432 7.21036 14.0374C7.32637 14.8089 7.95598 15.4003 8.73318 15.4679L9.54542 15.5385C11.2391 15.6857 12.9423 15.6857 14.6359 15.5385L15.4481 15.4679C16.2253 15.4003 16.855 14.8089 16.971 14.0374C17.1806 12.6432 17.1874 11.0288 17.0367 9.62885C17.0172 9.46655 16.9953 9.30448 16.971 9.14267C16.855 8.37122 16.2253 7.7798 15.4481 7.71224L14.6359 7.64164C12.9423 7.49441 11.2391 7.49441 9.54542 7.64164L8.73318 7.71224C7.95598 7.7798 7.32637 8.37122 7.21036 9.14267C7.18603 9.30445 7.16413 9.4665 7.14466 9.62876ZM9.61528 8.44534C11.2624 8.30216 12.9189 8.30216 14.566 8.44534L15.3783 8.51595C15.784 8.55122 16.1126 8.85994 16.1732 9.26264C16.1795 9.30446 16.1856 9.3463 16.1916 9.38815L13.2007 11.0497C12.5104 11.4333 11.6709 11.4333 10.9806 11.0497L7.98977 9.38817C7.99572 9.34631 8.00184 9.30446 8.00813 9.26264C8.06868 8.85994 8.39734 8.55122 8.80304 8.51595L9.61528 8.44534ZM16.2903 10.2562C16.3946 11.4758 16.3556 12.7047 16.1732 13.9175C16.1126 14.3202 15.784 14.6289 15.3783 14.6641L14.566 14.7348C12.9189 14.8779 11.2624 14.8779 9.61528 14.7348L8.80304 14.6641C8.39735 14.6289 8.06868 14.3202 8.00813 13.9175C7.82576 12.7047 7.78673 11.4759 7.89105 10.2562L10.5888 11.755C11.5228 12.2738 12.6585 12.2738 13.5925 11.755L16.2903 10.2562Z" fill="#194465"/>
</svg>
