<svg width="24" height="24" viewBox="0 0 24 24" fill="none" xmlns="http://www.w3.org/2000/svg">
<g clip-path="url(#clip0_194_7210)">
<path d="M2.90918 12C2.90918 6.97923 6.97932 2.90909 12.0001 2.90909C17.0209 2.90909 21.091 6.97923 21.091 12C21.091 17.0208 17.0209 21.0909 12.0001 21.0909C6.97932 21.0909 2.90918 17.0208 2.90918 12Z" fill="white"/>
<path d="M12.0001 18.0606C15.3473 18.0606 18.0607 15.3472 18.0607 12C18.0607 8.65282 15.3473 5.93939 12.0001 5.93939C8.65291 5.93939 5.93948 8.65282 5.93948 12C5.93948 15.3472 8.65291 18.0606 12.0001 18.0606Z" fill="#194465"/>
<path d="M8.67472 11.9246L14.5979 9.60416C14.8729 9.50324 15.113 9.6723 15.0239 10.0947L14.0159 14.9218C13.9411 15.2641 13.7409 15.3473 13.4609 15.1861L11.9251 14.036L11.1843 14.7611C11.1024 14.8443 11.0333 14.9145 10.8746 14.9145L10.9836 13.3265L13.83 10.7137C13.9539 10.6029 13.8024 10.5405 13.6391 10.6507L10.1215 12.901L8.60509 12.4203C8.27591 12.3142 8.26875 12.0859 8.67472 11.9246Z" fill="white"/>
</g>
<defs>
<clipPath id="clip0_194_7210">
<rect x="2" y="2" width="20" height="20" rx="10" fill="white"/>
</clipPath>
</defs>
</svg>
