<svg width="20" height="20" viewBox="0 0 20 20" fill="none" xmlns="http://www.w3.org/2000/svg">
<path fill-rule="evenodd" clip-rule="evenodd" d="M7.44112 3.72488C6.38178 3.60648 5.28519 3.60648 4.22584 3.72488C3.96843 3.75365 3.76543 3.95747 3.73648 4.20502C3.60998 5.28664 3.60998 6.37931 3.73648 7.46093C3.76543 7.70848 3.96843 7.9123 4.22584 7.94107C5.28519 8.05947 6.38178 8.05947 7.44112 7.94107C7.69853 7.9123 7.90153 7.70848 7.93048 7.46093C8.05699 6.37931 8.05699 5.28664 7.93048 4.20502C7.90153 3.95747 7.69853 3.75365 7.44112 3.72488ZM4.087 2.48261C5.23862 2.3539 6.42834 2.3539 7.57997 2.48261C8.40567 2.57489 9.07437 3.22488 9.17202 4.05981C9.30981 5.2379 9.30981 6.42804 9.17202 7.60614C9.07437 8.44106 8.40567 9.09105 7.57997 9.18334C6.42834 9.31205 5.23862 9.31205 4.087 9.18334C3.2613 9.09105 2.5926 8.44106 2.49494 7.60614C2.35715 6.42804 2.35715 5.2379 2.49494 4.05981C2.5926 3.22488 3.2613 2.5749 4.087 2.48261Z" fill="white"/>
<path fill-rule="evenodd" clip-rule="evenodd" d="M7.44112 12.0582C6.38178 11.9398 5.28519 11.9398 4.22584 12.0582C3.96843 12.087 3.76543 12.2908 3.73648 12.5384C3.60998 13.62 3.60998 14.7126 3.73648 15.7943C3.76543 16.0418 3.96843 16.2456 4.22584 16.2744C5.28519 16.3928 6.38178 16.3928 7.44112 16.2744C7.69853 16.2456 7.90153 16.0418 7.93048 15.7943C8.05699 14.7126 8.05699 13.62 7.93048 12.5384C7.90153 12.2908 7.69853 12.087 7.44112 12.0582ZM4.087 10.8159C5.23862 10.6872 6.42834 10.6872 7.57997 10.8159C8.40567 10.9082 9.07437 11.5582 9.17202 12.3931C9.30981 13.5712 9.30981 14.7614 9.17202 15.9395C9.07437 16.7744 8.40567 17.4244 7.57997 17.5167C6.42834 17.6454 5.23862 17.6454 4.087 17.5167C3.2613 17.4244 2.5926 16.7744 2.49494 15.9395C2.35715 14.7614 2.35715 13.5712 2.49494 12.3931C2.5926 11.5582 3.2613 10.9082 4.087 10.8159Z" fill="white"/>
<path fill-rule="evenodd" clip-rule="evenodd" d="M15.7745 3.72488C14.7151 3.60648 13.6185 3.60648 12.5592 3.72488C12.3018 3.75365 12.0988 3.95747 12.0698 4.20502C11.9433 5.28664 11.9433 6.37931 12.0698 7.46093C12.0988 7.70848 12.3018 7.9123 12.5592 7.94107C13.6185 8.05947 14.7151 8.05947 15.7745 7.94107C16.0319 7.9123 16.2349 7.70848 16.2638 7.46093C16.3903 6.37931 16.3903 5.28664 16.2638 4.20502C16.2349 3.95747 16.0319 3.75365 15.7745 3.72488ZM12.4203 2.48261C13.572 2.3539 14.7617 2.3539 15.9133 2.48261C16.739 2.57489 17.4077 3.22488 17.5054 4.05981C17.6431 5.2379 17.6431 6.42804 17.5054 7.60614C17.4077 8.44106 16.739 9.09105 15.9133 9.18334C14.7617 9.31205 13.572 9.31205 12.4203 9.18334C11.5946 9.09105 10.9259 8.44106 10.8283 7.60614C10.6905 6.42804 10.6905 5.2379 10.8283 4.05981C10.9259 3.22488 11.5946 2.5749 12.4203 2.48261Z" fill="white"/>
<path fill-rule="evenodd" clip-rule="evenodd" d="M15.7745 12.0582C14.7151 11.9398 13.6185 11.9398 12.5592 12.0582C12.3018 12.087 12.0988 12.2908 12.0698 12.5384C11.9433 13.62 11.9433 14.7126 12.0698 15.7943C12.0988 16.0418 12.3018 16.2456 12.5592 16.2744C13.6185 16.3928 14.7151 16.3928 15.7745 16.2744C16.0319 16.2456 16.2349 16.0418 16.2638 15.7943C16.3903 14.7126 16.3903 13.62 16.2638 12.5384C16.2349 12.2908 16.0319 12.087 15.7745 12.0582ZM12.4203 10.8159C13.572 10.6872 14.7617 10.6872 15.9133 10.8159C16.739 10.9082 17.4077 11.5582 17.5054 12.3931C17.6431 13.5712 17.6431 14.7614 17.5054 15.9395C17.4077 16.7744 16.739 17.4244 15.9133 17.5167C14.7617 17.6454 13.572 17.6454 12.4203 17.5167C11.5946 17.4244 10.9259 16.7744 10.8283 15.9395C10.6905 14.7614 10.6905 13.5712 10.8283 12.3931C10.9259 11.5582 11.5946 10.9082 12.4203 10.8159Z" fill="white"/>
</svg>
