<svg width="18" height="18" viewBox="0 0 18 18" fill="none" xmlns="http://www.w3.org/2000/svg">
<g clip-path="url(#clip0_262_6897)">
<path d="M15.8625 17.5219H12.1781C11.2781 17.5219 10.5187 16.7906 10.5187 15.8625V12.8812C10.5187 12.6562 10.35 12.4875 10.125 12.4875H7.87499C7.64999 12.4875 7.48124 12.6562 7.48124 12.8812V15.8625C7.48124 16.7906 6.74999 17.5219 5.82187 17.5219H2.13749C1.23749 17.5219 0.478119 16.7906 0.478119 15.8625V6.38437C0.478119 5.90625 0.703119 5.48437 1.09687 5.23125L8.26874 0.703125C8.71874 0.421875 9.28124 0.421875 9.70312 0.703125L16.875 5.25937C17.2687 5.5125 17.4937 5.93437 17.4937 6.4125V15.8625C17.5219 16.7625 16.7625 17.5219 15.8625 17.5219ZM7.87499 11.2219H10.125C11.0531 11.2219 11.7844 11.9531 11.7844 12.8812V15.8625C11.7844 16.0875 11.9531 16.2562 12.1781 16.2562H15.8625C16.0875 16.2562 16.2562 16.0875 16.2562 15.8625V6.38437C16.2562 6.35625 16.2281 6.32812 16.2281 6.3L9.02812 1.77187C8.99999 1.74375 8.97187 1.74375 8.94374 1.77187L1.79999 6.3C1.77187 6.32812 1.74374 6.35625 1.74374 6.38437V15.8625C1.74374 16.0875 1.91249 16.2562 2.13749 16.2562H5.82187C6.04687 16.2562 6.21562 16.0875 6.21562 15.8625V12.8812C6.21562 11.9812 6.94687 11.2219 7.87499 11.2219Z" fill="white"/>
</g>
<defs>
<clipPath id="clip0_262_6897">
<rect width="18" height="18" fill="white"/>
</clipPath>
</defs>
</svg>
