<svg width="19" height="19" viewBox="0 0 19 19" fill="none" xmlns="http://www.w3.org/2000/svg">
<rect y="0.5" width="18.18" height="18.18" rx="9.09" fill="white"/>
<path fill-rule="evenodd" clip-rule="evenodd" d="M4.14466 7.62876C3.99399 9.02867 4.0007 10.6432 4.21036 12.0374C4.32637 12.8089 4.95598 13.4003 5.73318 13.4679L6.54542 13.5385C8.23905 13.6857 9.94227 13.6857 11.6359 13.5385L12.4481 13.4679C13.2253 13.4003 13.855 12.8089 13.971 12.0374C14.1806 10.6432 14.1874 9.02876 14.0367 7.62885C14.0172 7.46655 13.9953 7.30448 13.971 7.14267C13.855 6.37122 13.2253 5.7798 12.4481 5.71224L11.6359 5.64164C9.94227 5.49441 8.23905 5.49441 6.54542 5.64164L5.73318 5.71224C4.95598 5.7798 4.32637 6.37122 4.21036 7.14267C4.18603 7.30445 4.16413 7.4665 4.14466 7.62876ZM6.61528 6.44534C8.26243 6.30216 9.91889 6.30216 11.566 6.44534L12.3783 6.51595C12.784 6.55122 13.1126 6.85994 13.1732 7.26264C13.1795 7.30446 13.1856 7.3463 13.1916 7.38815L10.2007 9.04974C9.51036 9.43326 8.67093 9.43326 7.98058 9.04973L4.98977 7.38817C4.99572 7.34631 5.00184 7.30446 5.00813 7.26264C5.06868 6.85994 5.39734 6.55122 5.80304 6.51595L6.61528 6.44534ZM13.2903 8.25619C13.3946 9.47584 13.3556 10.7047 13.1732 11.9175C13.1126 12.3202 12.784 12.6289 12.3783 12.6641L11.566 12.7348C9.9189 12.8779 8.26243 12.8779 6.61528 12.7348L5.80304 12.6641C5.39735 12.6289 5.06868 12.3202 5.00813 11.9175C4.82576 10.7047 4.78673 9.47585 4.89105 8.2562L7.5888 9.75495C8.5228 10.2738 9.65849 10.2738 10.5925 9.75495L13.2903 8.25619Z" fill="#194465"/>
</svg>
