<svg width="22" height="22" viewBox="0 0 22 22" fill="none" xmlns="http://www.w3.org/2000/svg">
<path fill-rule="evenodd" clip-rule="evenodd" d="M18.1043 11C18.1043 10.6203 17.7965 10.3125 17.4168 10.3125H4.5835C4.2038 10.3125 3.896 10.6203 3.896 11C3.896 11.3797 4.2038 11.6875 4.5835 11.6875H17.4168C17.7965 11.6875 18.1043 11.3797 18.1043 11Z" fill="#FFFFFF"/>
<path fill-rule="evenodd" clip-rule="evenodd" d="M18.1043 6.41663C18.1043 6.03693 17.7965 5.72913 17.4168 5.72913H4.5835C4.2038 5.72913 3.896 6.03693 3.896 6.41663C3.896 6.79632 4.2038 7.10413 4.5835 7.10413H17.4168C17.7965 7.10413 18.1043 6.79632 18.1043 6.41663Z" fill="#FFFFFF"/>
<path fill-rule="evenodd" clip-rule="evenodd" d="M18.1043 15.5833C18.1043 15.2036 17.7965 14.8958 17.4168 14.8958H4.5835C4.2038 14.8958 3.896 15.2036 3.896 15.5833C3.896 15.963 4.2038 16.2708 4.5835 16.2708H17.4168C17.7965 16.2708 18.1043 15.963 18.1043 15.5833Z" fill="#FFFFFF"/>
</svg>
