<svg width="24" height="24" viewBox="0 0 24 24" fill="none" xmlns="http://www.w3.org/2000/svg">
<g clip-path="url(#clip0_194_7199)">
<path d="M2.90918 12C2.90918 6.97923 6.97932 2.90909 12.0001 2.90909C17.0209 2.90909 21.091 6.97923 21.091 12C21.091 17.0208 17.0209 21.0909 12.0001 21.0909C6.97932 21.0909 2.90918 17.0208 2.90918 12Z" fill="white"/>
<path d="M14.2392 12.8249C14.0019 12.5907 13.7056 12.5907 13.4699 12.8249C13.29 13.0033 13.1101 13.1816 12.9333 13.363C12.8849 13.4129 12.8441 13.4234 12.7852 13.3902C12.6688 13.3267 12.5449 13.2753 12.433 13.2058C11.9116 12.8778 11.4748 12.4562 11.0879 11.9816C10.896 11.7458 10.7252 11.4934 10.6058 11.2093C10.5816 11.1519 10.5861 11.1141 10.633 11.0672C10.8128 10.8934 10.9881 10.7151 11.165 10.5368C11.4113 10.2889 11.4113 9.99872 11.1635 9.74935C11.0229 9.60728 10.8823 9.46824 10.7418 9.32617C10.5967 9.18108 10.4531 9.03448 10.3065 8.8909C10.0692 8.65966 9.77299 8.65966 9.53721 8.89241C9.35584 9.07075 9.18203 9.25363 8.99764 9.42894C8.82685 9.59066 8.7407 9.78864 8.72257 10.0199C8.69385 10.3962 8.78605 10.7514 8.91603 11.0975C9.18203 11.8139 9.58708 12.4501 10.0783 13.0335C10.7418 13.8224 11.5338 14.4466 12.4602 14.897C12.8774 15.0995 13.3096 15.2552 13.7797 15.2809C14.1031 15.299 14.3842 15.2174 14.6094 14.965C14.7636 14.7927 14.9374 14.6355 15.1006 14.4708C15.3425 14.226 15.344 13.9297 15.1037 13.6879C14.8165 13.3993 14.5278 13.1121 14.2392 12.8249Z" fill="#194465"/>
</g>
<defs>
<clipPath id="clip0_194_7199">
<rect x="2" y="2" width="20" height="20" rx="10" fill="white"/>
</clipPath>
</defs>
</svg>
