<svg width="24" height="24" viewBox="0 0 24 24" fill="none" xmlns="http://www.w3.org/2000/svg">
<g clip-path="url(#clip0_194_7200)">
<path d="M2.90918 12C2.90918 6.97923 6.97932 2.90909 12.0001 2.90909C17.0209 2.90909 21.091 6.97923 21.091 12C21.091 17.0208 17.0209 21.0909 12.0001 21.0909C6.97932 21.0909 2.90918 17.0208 2.90918 12Z" fill="white"/>
<path d="M6.94968 17.0506L7.81837 14.4447C7.37758 13.7033 7.12384 12.8381 7.12384 11.913C7.12384 9.17181 9.34606 6.94959 12.0873 6.94959C14.8285 6.94959 17.0507 9.17181 17.0507 11.913C17.0507 14.6542 14.8285 16.8764 12.0873 16.8764C11.2532 16.8764 10.4678 16.6697 9.77797 16.3064L6.94968 17.0506Z" fill="#194465"/>
<path d="M15.2539 13.5651C15.0247 13.1319 14.1796 12.6366 14.1796 12.6366C13.9883 12.5276 13.7576 12.5154 13.6486 12.7098C13.6486 12.7098 13.3739 13.0391 13.3041 13.0865C12.985 13.3026 12.6895 13.2943 12.3912 12.9959L11.0045 11.6093C10.7062 11.311 10.6979 11.0154 10.914 10.6964C10.9614 10.6265 11.2907 10.3519 11.2907 10.3519C11.485 10.2427 11.4728 10.0121 11.3638 9.8209C11.3638 9.8209 10.8685 8.97573 10.4354 8.74654C10.2511 8.64901 10.0249 8.68315 9.87758 8.83048L9.57142 9.13665C8.60015 10.1079 9.07838 11.2044 10.0496 12.1757L11.825 13.951C12.7963 14.9223 13.8927 15.4005 14.864 14.4292L15.1702 14.1231C15.3175 13.9754 15.3515 13.7492 15.2539 13.5651Z" fill="white"/>
</g>
<defs>
<clipPath id="clip0_194_7200">
<rect x="2" y="2" width="20" height="20" rx="10" fill="white"/>
</clipPath>
</defs>
</svg>
